<svg width="70" height="54" viewBox="0 0 70 54" fill="none" xmlns="http://www.w3.org/2000/svg">
<path d="M36.9322 40C37.0922 38.7733 37.8122 38.16 39.0922 38.16H40.6922C41.9722 38.16 42.6122 38.8267 42.6122 40.16L42.4522 48C42.4522 49.0667 41.9722 49.84 41.0122 50.32C38.8789 51.2267 36.6389 51.92 34.2922 52.4C31.9989 52.9333 29.5722 53.2 27.0122 53.2C23.0122 53.2 19.3589 52.5867 16.0522 51.36C12.7989 50.08 9.99885 48.2933 7.65219 46C5.35885 43.6533 3.57219 40.8533 2.29219 37.6C1.01219 34.2933 0.372188 30.64 0.372188 26.64C0.372188 22.64 1.03885 19.0133 2.37219 15.76C3.70552 12.4533 5.54552 9.65333 7.89219 7.36C10.2922 5.01333 13.1455 3.2 16.4522 1.92C19.7589 0.639997 23.3855 -2.86102e-06 27.3322 -2.86102e-06C29.4122 -2.86102e-06 31.5189 0.213331 33.6522 0.639998C35.8389 1.06667 38.0522 1.84 40.2922 2.96C41.2522 3.49333 41.7322 4.29333 41.7322 5.36L41.8922 13.2C41.8922 14.5333 41.2522 15.2 39.9722 15.2H38.3722C37.0922 15.2 36.3722 14.5867 36.2122 13.36L35.1722 7.28C35.0655 6.53333 34.7189 5.97333 34.1322 5.6C33.5989 5.17333 32.9589 4.85333 32.2122 4.64C31.4655 4.37333 30.6922 4.21333 29.8922 4.16C29.0922 4.10666 28.3989 4.08 27.8122 4.08C24.7189 4.08 22.0789 4.74666 19.8922 6.08C17.7055 7.41333 15.9189 9.17333 14.5322 11.36C13.1455 13.4933 12.1322 15.92 11.4922 18.64C10.8522 21.3067 10.5322 23.9733 10.5322 26.64C10.5322 29.3067 10.8255 32 11.4122 34.72C12.0522 37.3867 13.0389 39.7867 14.3722 41.92C15.7055 44.0533 17.4389 45.7867 19.5722 47.12C21.7589 48.4533 24.4255 49.12 27.5722 49.12C29.7589 49.12 31.9722 48.7467 34.2122 48C35.2255 47.68 35.8122 46.96 35.9722 45.84L36.9322 40ZM51.0572 14.08C53.8305 14.08 56.3639 14.6133 58.6572 15.68C60.9505 16.6933 62.8972 18.1067 64.4972 19.92C66.1505 21.68 67.4039 23.76 68.2572 26.16C69.1639 28.5067 69.6172 31.04 69.6172 33.76C69.6172 36.5333 69.1639 39.12 68.2572 41.52C67.4039 43.8667 66.1772 45.92 64.5772 47.68C62.9772 49.3867 61.0305 50.7467 58.7372 51.76C56.4439 52.72 53.8839 53.2 51.0572 53.2C48.2305 53.2 45.6705 52.72 43.3772 51.76C41.0839 50.7467 39.1372 49.3867 37.5372 47.68C35.9372 45.92 34.6839 43.8667 33.7772 41.52C32.9239 39.12 32.4972 36.5333 32.4972 33.76C32.4972 31.04 32.9239 28.48 33.7772 26.08C34.6839 23.68 35.9372 21.6 37.5372 19.84C39.1905 18.08 41.1372 16.6933 43.3772 15.68C45.6705 14.6133 48.2305 14.08 51.0572 14.08ZM51.0572 17.68C44.9239 17.68 41.8572 23.0133 41.8572 33.68C41.8572 44.24 44.9239 49.52 51.0572 49.52C57.1905 49.52 60.2572 44.24 60.2572 33.68C60.2572 23.0133 57.1905 17.68 51.0572 17.68Z" fill="#307A70"/>
</svg>
